<svg xmlns="http://www.w3.org/2000/svg" width="1200" height="420" viewBox="0 0 1200 420" role="img" aria-labelledby="title desc"><title id="title">Meshly</title><desc id="desc">One workspace for every connected cloud</desc><defs><linearGradient id="bg" x1="0" y1="0" x2="1" y2="1"><stop stop-color="#f8fbff"/><stop offset="1" stop-color="#eef6ff"/></linearGradient><filter id="s"><feDropShadow dx="0" dy="14" stdDeviation="20" flood-opacity=".12"/></filter></defs><rect width="1200" height="420" rx="32" fill="url(#bg)"/><circle cx="1020" cy="40" r="170" fill="#4285F4" opacity=".08"/><circle cx="1120" cy="360" r="210" fill="#34A853" opacity=".08"/><circle cx="180" cy="420" r="180" fill="#FBBC04" opacity=".08"/><g transform="translate(105 108) scale(2.2)" filter="url(#s)"><path d="M11 19.5 29 9l8 13.6-18 10.5z" fill="#4285F4"/><path d="m37 22.6 16 9.3-8 13.8-16-9.4z" fill="#34A853"/><path d="m19 33.1 10 3.2 16 9.4-8 13.8-26-15z" fill="#FBBC04"/><path d="m11 19.5 8 13.6-8 11.5L3 30.8z" fill="#EA4335"/><circle cx="29" cy="36" r="5.2" fill="white"/></g><text x="285" y="180" font-family="Inter,Arial,sans-serif" font-size="74" font-weight="700" letter-spacing="-4" fill="#202124">Meshly</text><text x="288" y="232" font-family="Inter,Arial,sans-serif" font-size="24" fill="#5f6368">All your storage. One workspace.</text><g transform="translate(288 275)"><rect width="144" height="42" rx="21" fill="#0B57D0"/><text x="72" y="27" text-anchor="middle" font-family="Inter,Arial,sans-serif" font-size="14" font-weight="700" fill="white">UNIFIED STORAGE</text><rect x="156" width="126" height="42" rx="21" fill="white" stroke="#d9e1ea"/><text x="219" y="27" text-anchor="middle" font-family="Inter,Arial,sans-serif" font-size="14" font-weight="700" fill="#202124">MULTI-ACCOUNT</text></g></svg>
